<svg xmlns="http://www.w3.org/2000/svg" viewBox="0 0 1200 600"><rect width="1200" height="600" fill="#fff"/><path d="M80 350 C260 100 390 170 530 300 C690 440 820 150 1120 290 C980 520 740 530 570 400 C390 270 260 540 80 350Z" fill="#06a9e8"/><path d="M310 330 C420 200 540 230 620 315 C690 390 820 250 910 310 C850 420 690 450 570 370 C470 300 400 430 310 330Z" fill="#58c7e8"/><rect x="520" y="250" width="180" height="120" fill="#18a7c9"/><rect x="550" y="220" width="120" height="35" fill="#1594b0"/><text x="600" y="95" text-anchor="middle" font-family="Arial" font-size="42" font-weight="700" fill="#1b5e89">AUTOMATION &amp; WATER</text></svg>